<?xml version="1.0" standalone="no"?>
<!DOCTYPE svg PUBLIC "-//W3C//DTD SVG 20010904//EN"
 "http://www.w3.org/TR/2001/REC-SVG-20010904/DTD/svg10.dtd">
<svg version="1.0" xmlns="http://www.w3.org/2000/svg"
 width="225.000000pt" height="225.000000pt" viewBox="0 0 225.000000 225.000000"
 preserveAspectRatio="xMidYMid meet">
<metadata>
Created by potrace 1.15, written by Peter Selinger 2001-2017
</metadata>
<g transform="translate(0.000000,225.000000) scale(0.100000,-0.100000)"
fill="#000000" stroke="none">
<path d="M1025 2240 c-163 -23 -332 -118 -433 -243 -112 -141 -153 -252 -160
-443 -5 -154 3 -188 61 -251 64 -70 86 -73 476 -73 312 0 341 -2 401 -21 113
-36 288 -24 391 27 26 13 26 13 113 -136 80 -137 86 -151 72 -166 -24 -24 -36
-51 -44 -97 l-8 -42 -112 -3 c-126 -3 -120 -8 -97 78 20 74 19 109 -5 148 -38
62 -41 62 -555 62 -514 0 -517 0 -555 -62 -25 -41 -25 -73 -1 -165 l19 -73
-119 0 -119 0 0 32 c0 87 -95 165 -190 156 -173 -17 -215 -249 -59 -328 l39
-20 0 -154 0 -153 -42 -6 c-48 -6 -88 -43 -87 -80 0 -12 8 -64 17 -116 19
-103 37 -130 68 -99 15 15 15 23 0 114 -10 56 -13 101 -8 106 5 5 49 8 98 6
82 -3 89 -5 87 -23 -1 -11 -8 -60 -14 -108 -11 -76 -11 -90 1 -98 18 -11 22
-11 38 0 19 11 54 215 42 245 -13 34 -49 56 -92 56 l-38 0 0 154 0 154 32 13
c17 7 46 28 64 46 l34 34 132 -3 133 -3 40 -155 c53 -202 69 -231 155 -276 32
-17 61 -19 325 -19 278 0 292 1 330 22 81 43 102 81 148 266 25 96 31 139 24
146 -16 16 -54 13 -61 -4 -4 -11 -23 -15 -80 -15 -68 0 -75 -2 -91 -26 -12
-19 -14 -29 -6 -37 32 -32 -2 -88 -42 -70 -18 8 -33 4 -76 -20 -69 -39 -177
-49 -245 -23 -65 25 -123 71 -157 124 l-30 47 67 6 c57 5 71 10 91 33 20 23
23 38 23 105 0 111 -12 124 -121 131 l-82 5 27 33 28 32 309 0 c241 0 309 -3
309 -12 0 -7 -11 -53 -23 -103 l-23 -90 -119 -3 c-67 -1 -125 -7 -132 -14 -19
-16 -16 -46 6 -58 13 -6 147 -10 368 -10 341 0 348 0 361 -21 14 -23 106 -69
137 -69 161 0 242 198 124 304 -40 37 -58 44 -123 48 -39 3 -41 5 -106 113
-36 61 -76 128 -88 150 l-23 40 59 63 c92 97 152 242 152 367 0 133 -61 277
-160 375 -137 138 -311 184 -517 139 -38 -9 -63 -9 -95 -1 -63 16 -194 22
-263 12z m152 -66 l53 -7 -63 -57 c-34 -32 -78 -84 -97 -117 -30 -50 -39 -59
-55 -52 -11 4 -47 8 -79 8 -175 2 -287 -174 -212 -334 42 -90 130 -142 228
-133 29 3 60 8 68 12 11 4 22 -7 38 -38 13 -24 46 -69 74 -100 l51 -57 -291 3
c-275 3 -292 4 -318 24 -58 43 -69 68 -72 169 -8 203 49 357 182 491 107 107
213 163 351 183 81 12 83 12 142 5z m458 -9 c250 -66 403 -316 340 -558 -48
-184 -195 -318 -381 -347 -194 -30 -391 76 -482 259 -36 74 -37 77 -37 195 0
118 1 123 36 197 97 202 316 308 524 254z m-654 -335 c17 -9 19 -22 19 -99 0
-99 -1 -101 -72 -101 -77 0 -123 88 -84 159 25 45 92 65 137 41z"/>
<path d="M1415 2067 c-93 -31 -178 -109 -223 -206 -23 -47 -27 -70 -27 -146 0
-82 3 -97 32 -156 39 -79 102 -140 181 -177 49 -23 70 -27 152 -27 84 0 102 3
152 28 74 36 144 107 177 177 23 48 26 68 26 160 0 94 -3 110 -27 155 -40 77
-90 128 -160 165 -56 30 -73 34 -153 37 -55 2 -106 -2 -130 -10z m218 -73 c25
-8 66 -33 91 -55 195 -172 86 -498 -173 -517 -124 -9 -232 52 -288 161 -74
147 -9 333 142 403 60 29 158 32 228 8z"/>
<path d="M764 65 c-4 -8 -4 -22 0 -30 5 -13 51 -15 363 -13 l358 3 0 25 0 25
-358 3 c-312 2 -358 0 -363 -13z"/>
</g>
</svg>
